<svg width="56" height="16" viewBox="0 0 56 16" fill="none" xmlns="http://www.w3.org/2000/svg">
<path d="M9.82456 0.466832V16H6.28427L4.18311 8.9386V16H0.805921V0.466832H4.18311L6.44737 7.46107V0.466832H9.82456ZM11.4556 0.466832H18.1908V3.57538H15.4948V6.52083H18.0181V9.47588H15.4948V12.8914H18.4594V16H11.4556V0.466832ZM27.4973 0.466832V3.57538H25.0987V16H21.0595V3.57538H18.6705V0.466832H27.4973ZM37.4369 0.466832V16H33.8967L31.7955 8.9386V16H28.4183V0.466832H31.7955L34.0598 7.46107V0.466832H37.4369ZM39.068 0.466832H45.8032V3.57538H43.1072V6.52083H45.6305V9.47588H43.1072V12.8914H46.0718V16H39.068V0.466832ZM55.1096 0.466832V3.57538H52.7111V16H48.6719V3.57538H46.2829V0.466832H55.1096Z" fill="url(#paint0_linear_850_8)"/>
<defs>
<linearGradient id="paint0_linear_850_8" x1="0" y1="-4" x2="70.2707" y2="29.4405" gradientUnits="userSpaceOnUse">
<stop stop-color="#FF0021"/>
<stop offset="1" stop-color="#AA011A"/>
</linearGradient>
</defs>
</svg>
