<?xml version="1.0" standalone="no"?>
<!DOCTYPE svg PUBLIC "-//W3C//DTD SVG 20010904//EN"
 "http://www.w3.org/TR/2001/REC-SVG-20010904/DTD/svg10.dtd">
<svg version="1.0" xmlns="http://www.w3.org/2000/svg"
 width="512.000000pt" height="512.000000pt" viewBox="0 0 512.000000 512.000000"
 preserveAspectRatio="xMidYMid meet">
<metadata>
Created by potrace 1.14, written by Peter Selinger 2001-2017
</metadata>
<g transform="translate(0.000000,512.000000) scale(0.100000,-0.100000)"
fill="#000000" stroke="none">
<path d="M1168 5108 c-2 -7 -3 -1158 -2 -2558 l0 -2545 25 1 c13 0 49 4 79 8
30 4 73 9 95 12 22 2 58 7 80 10 22 2 65 7 95 10 30 2 75 6 100 9 24 3 80 8
125 11 44 3 96 7 115 10 19 2 89 6 155 10 66 3 123 8 126 10 4 2 6 497 5 1099
-1 878 1 1092 12 1078 6 -9 12 -21 12 -26 0 -8 53 -158 175 -497 33 -90 121
-338 157 -440 16 -47 40 -114 53 -150 62 -170 105 -290 124 -345 11 -33 39
-112 62 -175 22 -63 43 -124 46 -135 2 -11 9 -29 14 -40 18 -41 119 -330 119
-341 0 -24 29 -33 125 -38 98 -5 149 -9 310 -22 114 -9 131 -11 380 -38 17 -2
55 -7 85 -11 30 -4 68 -8 85 -9 l29 -1 1 2545 c0 1400 -1 2551 -3 2558 -3 9
-113 12 -502 12 l-498 0 1 -1090 c1 -600 -1 -1090 -5 -1090 -5 0 -8 1 -8 3 0
4 -97 281 -109 310 -6 16 -11 31 -11 35 0 4 -11 37 -25 74 -42 115 -70 193
-170 478 -53 151 -101 284 -105 295 -12 29 -23 59 -26 70 -5 19 -65 190 -74
210 -5 11 -16 40 -24 65 -8 25 -31 90 -51 145 -20 55 -40 111 -45 125 -8 25
-103 290 -122 343 l-10 27 -498 0 c-390 0 -499 -3 -502 -12z"/>
</g>
</svg>
